PathFileType	4	(X/Y/Z)	Patient4_TMGait_0pt4_01_right_19.trc.trc
DataRate	CameraRate	NumFrames	NumMarkers	Units	OrigDataRate	OrigDataStartFrame	OrigNumFrames
85.889570552147	85.889570552147	4	33	mm	85.889570552147	89	       141
Frame#	Time	Sacral			L.Shoulder			Chest			R.Shoulder			Neck			R.ASIS			L.ASIS			R.Thigh.Superior			R.Thigh.Lateral			R.Thigh.Inferior			R.Patella			L.Thigh.Superior			L.Thigh.Lateral			L.Thigh.Inferior			L.Patella			L.Shank.Superior			L.Shank.Lateral			L.Shank.Inferior			R.Shank.Superior			R.Shank.Lateral			R.Shank.Inferior			R.Heel			R.Midfoot.Superior			R.Midfoot.Lateral			R.Toe			L.Heel			L.Midfoot.Lateral			L.Midfoot.Superior			L.Toe			L.Elbow			L.Wrist			R.Elbow			R.Wrist			
		X1	Y1	Z1	X2	Y2	Z2	X3	Y3	Z3	X4	Y4	Z4	X5	Y5	Z5	X6	Y6	Z6	X7	Y7	Z7	X8	Y8	Z8	X9	Y9	Z9	X10	Y10	Z10	X11	Y11	Z11	X12	Y12	Z12	X13	Y13	Z13	X14	Y14	Z14	X15	Y15	Z15	X16	Y16	Z16	X17	Y17	Z17	X18	Y18	Z18	X19	Y19	Z19	X20	Y20	Z20	X21	Y21	Z21	X22	Y22	Z22	X23	Y23	Z23	X24	Y24	Z24	X25	Y25	Z25	X26	Y26	Z26	X27	Y27	Z27	X28	Y28	Z28	X29	Y29	Z29	X30	Y30	Z30	X31	Y31	Z31	X32	Y32	Z32	X33	Y33	Z33	

89	25.644571428571	698.588517239048	1006.918550344318	449.533276706566	839.871521617787	1431.319413618060	242.135103271649	972.578730766043	1369.492587075903	382.494493742076	920.613733163297	1449.062424448298	566.493109443924	851.537251860526	1495.330943105697	409.098840560144	937.502870138264	940.618505440089	537.550978052469	894.406017723604	965.342273316977	267.671132710072	967.793213294729	733.797178208231	518.837562733457	889.220527744823	628.760872207255	594.393678639985	962.693508657722	566.332013652892	517.156654685252	954.396132508281	462.029900242428	540.100210199043	959.526815617918	759.626832113975	291.756384836159	876.108198392414	637.228837871105	237.984910340154	971.868037541596	565.485019236330	292.291202224033	978.508551185199	495.433246972673	300.581064638185	951.578267061046	421.751662946488	294.164375287220	861.441018663739	306.897058874408	246.797104483724	917.414994469312	194.982081768550	312.951432793664	883.548206390563	391.734016886554	550.183807103481	771.862294590063	340.457475835409	619.534330291529	764.798472788125	231.046021516029	568.359678770820	568.123194746360	136.408373659138	553.996374549036	748.109561553511	116.308330503294	581.338897060056	643.653554552629	90.717870972244	621.780865410644	836.779596917441	32.872752309685	600.188056143633	791.838604006471	39.362706985634	357.293843509468	863.038686287070	35.736006844758	274.568633642461	948.206135790169	95.945786579524	298.308417058825	1074.960399579340	41.499225203767	265.385392940681	781.718708883717	1124.506318049791	62.791836700800	854.377700392056	903.698783750274	-58.693889213825	1005.484521134936	1116.694293223679	689.210586198511	1227.920300587805	1021.272251911423	602.247020690560	
90	25.656214285714	698.642770336511	1007.039480570174	447.467819762439	841.315820977910	1431.605272876216	240.495584001176	973.233391761434	1369.611223665244	381.477667598797	920.417978607548	1449.057988505739	565.264719408062	852.152151703484	1495.576642995566	407.559764362653	937.310836812653	940.801765255831	536.189970655117	894.825855110718	965.598693342677	266.158951665448	971.868620814547	735.667813099051	517.461797047277	895.415059668002	629.376932422891	593.014046587312	970.292026118175	567.946675721742	515.839365166824	962.944062601287	462.670817508905	539.080527485526	958.439201443232	758.735429902034	289.782628133026	874.099634974404	637.121310126000	236.576514103837	969.195956493441	564.802678863648	291.174532227267	975.267697951286	494.872071093881	299.612937559066	948.186907130997	421.301535139019	293.325083607213	857.804565073716	306.633557833950	246.092627813904	913.239346055775	194.733222870976	312.661896442857	890.589647459150	392.943587976355	549.333427227131	777.711442429496	344.747625502218	618.939340177263	767.972409579725	235.281500647945	568.491948481573	569.091062178814	147.352489143210	555.237287003064	748.317021156793	120.037970198216	581.774303957902	643.033171577051	98.587226564161	622.590673089864	833.261486483068	31.971008663215	600.087341760866	787.159658709774	39.323891376454	357.240946028535	858.344044742507	35.669876314330	274.496544513717	943.531809902106	95.838435056288	298.234541026707	1070.288725782624	41.344136343608	265.312554417357	786.875347816067	1126.486267120453	57.979527480274	866.229663737514	908.970881307862	-65.807016801224	999.690421882362	1114.653833758541	687.430907181777	1218.888789141148	1009.319938699534	602.546048439425	
91	25.667857142857	698.517566074031	1007.057114668345	445.568081808699	842.748055192513	1431.767101991773	238.996874013319	973.840302954857	1369.561093380074	380.616166915484	920.182648412756	1448.879127579485	564.197820233614	852.775179107064	1495.698861118658	406.150276934401	936.974245805233	940.856666870947	534.986146570908	895.098480064818	965.736078705994	264.774198171301	975.765107889266	737.615103790133	516.081969191679	901.578854978275	630.084610086293	591.673088808803	977.766195525450	569.754836707781	514.469098699092	971.513290425857	463.551647053213	537.882348225178	957.386236046419	757.912605773768	288.182820610936	872.347401849784	636.987710538819	235.335400636978	966.746368340485	564.149384131754	290.327533313271	972.276519008827	494.287059330376	298.899497602282	945.014182544008	420.812502011333	292.695110122754	854.378278556171	306.383298878273	245.497003673993	909.158152230751	194.454450636881	312.476029940932	897.756635911664	394.309588253690	548.360071653255	783.835371802715	349.074254506257	618.248336783077	771.455149706892	239.647956137447	568.474326943450	570.688692750762	158.332210497579	556.310167741718	748.911000943015	124.063030844953	582.154778188662	642.959958726255	106.717487534089	623.326460447201	830.074380549009	31.175337005098	600.110645497533	782.480439464658	39.283431686103	357.190640379691	853.652262402831	35.621078358300	274.426733509680	938.855883333753	95.743239094916	298.196596003414	1065.617766868412	41.204513467330	265.250334876137	791.958354098615	1128.579820427346	53.154329677235	878.053673759341	914.759689856976	-73.075877285780	993.609656051224	1112.454904427069	685.745750227227	1209.181912815475	997.073232167641	603.542949373780	
92	25.679500000000	698.233286457514	1007.009159034729	443.824159674815	844.142401300691	1431.840962773833	237.649547614707	974.391808733945	1369.380407988034	379.903269938275	919.910851992325	1448.556367461458	563.292625234442	853.407220646221	1495.722797431024	404.879045366906	936.490065189605	940.824909849720	533.925551729068	895.249783925702	965.775811316021	263.517206776573	979.386515022952	739.647560815178	514.663319653452	907.645729939293	630.920888135774	590.391491392793	985.034941614708	571.785227918927	513.059233941897	980.058875033459	464.700079884905	536.575392016712	956.403005862230	757.163735890755	286.947005540905	870.828271990467	636.822390397822	234.286869943117	964.512498858402	563.511894537626	289.738684364890	969.527045941018	493.673813456483	298.451670044615	942.053162787405	420.287533316316	292.282899962870	851.145178035485	306.151447192540	245.021522576517	905.163511373442	194.149720908662	312.396455087943	905.013608889026	395.852074473062	547.316226022994	790.171035850250	353.405714067478	617.463096099620	775.277106819198	244.091801022078	568.319774163592	572.956282203064	169.100683749919	557.118798036497	749.987432946318	128.300415437359	582.494228831827	643.506381261985	114.919847242973	623.935412713519	827.391649523802	30.614722812467	600.303865173253	777.800888346701	39.240219504212	357.141907583993	848.964151341600	35.588659463336	274.359300253185	934.176611150669	95.663087271185	298.195368925641	1060.947214259358	41.089148058520	265.198444766978	796.927207727282	1130.799619507003	48.358320293280	889.737573276397	921.066042155731	-80.430556863242	987.255781211726	1110.147885981511	684.156285300184	1198.761896961305	984.584749567586	605.284368278726	
